<svg xmlns="http://www.w3.org/2000/svg" viewBox="0 0 16 16" width="16" height="16" fill="none">
  <g transform="translate(1.5 1.5)">
    <path d="M0.5 3.16667C0.846785 3.0748 1.18494 2.95301 1.51067 2.80267C2.118 2.51067 2.50667 2.126 2.802 1.51467C2.94 1.22933 3.05667 0.896 3.16667 0.5C3.27667 0.896667 3.39333 1.23 3.53133 1.514C3.82667 2.126 4.21533 2.51067 4.82267 2.80267C5.10667 2.93933 5.43933 3.056 5.83333 3.16667C5.48653 3.25875 5.14837 3.38076 4.82267 3.53133C4.21533 3.82333 3.82667 4.208 3.53133 4.81933C3.37961 5.14571 3.25756 5.48508 3.16667 5.83333C3.05667 5.43733 2.94 5.10333 2.802 4.81933C2.50667 4.20733 2.118 3.82333 1.51067 3.53133C1.18536 3.3798 0.847117 3.25775 0.5 3.16667Z" stroke="currentColor" stroke-linecap="round" stroke-linejoin="round"/>
  </g>
  <g transform="translate(4.16667 4.16667)">
    <path d="M0.5 5.16667C0.871842 5.06367 1.23927 4.94535 1.60133 4.812C3.296 4.17667 4.17 3.32 4.812 1.608C4.94629 1.244 5.06462 0.874318 5.16667 0.5C5.26871 0.874318 5.38705 1.244 5.52133 1.608C6.16333 3.31933 7.038 4.17667 8.732 4.812C9.06533 4.93644 9.43244 5.05467 9.83333 5.16667C9.46149 5.26966 9.09407 5.38798 8.732 5.52133C7.03733 6.15667 6.16267 7.01333 5.52133 8.72533C5.38705 9.08933 5.26871 9.45902 5.16667 9.83333C5.06462 9.45902 4.94629 9.08933 4.812 8.72533C4.17 7.01333 3.29533 6.15667 1.60133 5.52133C1.23927 5.38798 0.871842 5.26966 0.5 5.16667Z" stroke="currentColor" stroke-linecap="round" stroke-linejoin="round"/>
  </g>
</svg>