<svg xmlns="http://www.w3.org/2000/svg" viewBox="0 0 20 20" width="20" height="20" fill="none">
  <g transform="translate(1.875 1.875)">
    <path d="M0.625 3.95833C1.05848 3.8435 1.48118 3.69126 1.88833 3.50333C2.6475 3.13833 3.13333 2.6575 3.5025 1.89333C3.675 1.53667 3.82083 1.12 3.95833 0.625C4.09583 1.12083 4.24167 1.5375 4.41417 1.8925C4.78333 2.6575 5.26917 3.13833 6.02833 3.50333C6.38333 3.67417 6.79917 3.82 7.29167 3.95833C6.85816 4.07343 6.43546 4.22595 6.02833 4.41417C5.26917 4.77917 4.78333 5.26 4.41417 6.02417C4.22451 6.43214 4.07195 6.85635 3.95833 7.29167C3.82083 6.79667 3.675 6.37917 3.5025 6.02417C3.13333 5.25917 2.6475 4.77917 1.88833 4.41417C1.4817 4.22475 1.0589 4.07219 0.625 3.95833Z" stroke="currentColor" stroke-width="1.25" stroke-linecap="round" stroke-linejoin="round"/>
  </g>
  <g transform="translate(5.20833 5.20833)">
    <path d="M0.625 6.45833C1.0898 6.32959 1.54908 6.18169 2.00167 6.015C4.12 5.22083 5.2125 4.15 6.015 2.01C6.18286 1.555 6.33078 1.0929 6.45833 0.625C6.58589 1.0929 6.73381 1.555 6.90167 2.01C7.70417 4.14917 8.7975 5.22083 10.915 6.015C11.3317 6.17056 11.7906 6.31833 12.2917 6.45833C11.8269 6.58708 11.3676 6.73498 10.915 6.90167C8.79667 7.69583 7.70333 8.76667 6.90167 10.9067C6.73381 11.3617 6.58589 11.8238 6.45833 12.2917C6.33078 11.8238 6.18286 11.3617 6.015 10.9067C5.2125 8.76667 4.11917 7.69583 2.00167 6.90167C1.54908 6.73498 1.0898 6.58708 0.625 6.45833Z" stroke="currentColor" stroke-width="1.25" stroke-linecap="round" stroke-linejoin="round"/>
  </g>
</svg>