<svg xmlns="http://www.w3.org/2000/svg" viewBox="0 0 24 24" width="24" height="24" fill="none">
  <g transform="translate(2.25 2.25)">
    <path d="M0.75 4.75C1.27018 4.6122 1.77741 4.42952 2.266 4.204C3.177 3.766 3.76 3.189 4.203 2.272C4.41 1.844 4.585 1.344 4.75 0.75C4.915 1.345 5.09 1.845 5.297 2.271C5.74 3.189 6.323 3.766 7.234 4.204C7.66 4.409 8.159 4.584 8.75 4.75C8.22979 4.88812 7.72255 5.07114 7.234 5.297C6.323 5.735 5.74 6.312 5.297 7.229C5.06942 7.71857 4.88634 8.22762 4.75 8.75C4.585 8.156 4.41 7.655 4.203 7.229C3.76 6.311 3.177 5.735 2.266 5.297C1.77804 5.0697 1.27067 4.88663 0.75 4.75Z" stroke="currentColor" stroke-width="1.5" stroke-linecap="round" stroke-linejoin="round"/>
  </g>
  <g transform="translate(6.25 6.25)">
    <path d="M0.75 7.75C1.30776 7.59551 1.8589 7.41802 2.402 7.218C4.944 6.265 6.255 4.98 7.218 2.412C7.41943 1.866 7.59693 1.31148 7.75 0.75C7.90307 1.31148 8.08057 1.866 8.282 2.412C9.245 4.979 10.557 6.265 13.098 7.218C13.598 7.40467 14.1487 7.582 14.75 7.75C14.1922 7.90449 13.6411 8.08198 13.098 8.282C10.556 9.235 9.244 10.52 8.282 13.088C8.08057 13.634 7.90307 14.1885 7.75 14.75C7.59693 14.1885 7.41943 13.634 7.218 13.088C6.255 10.52 4.943 9.235 2.402 8.282C1.8589 8.08198 1.30776 7.90449 0.75 7.75Z" stroke="currentColor" stroke-width="1.5" stroke-linecap="round" stroke-linejoin="round"/>
  </g>
</svg>