<svg xmlns="http://www.w3.org/2000/svg" viewBox="0 0 32 32" width="32" height="32" fill="none">
  <g transform="translate(3 3)">
    <path d="M1 6.33333C1.69357 6.1496 2.36989 5.90602 3.02133 5.60533C4.236 5.02133 5.01333 4.252 5.604 3.02933C5.88 2.45867 6.11333 1.792 6.33333 1C6.55333 1.79333 6.78667 2.46 7.06267 3.028C7.65333 4.252 8.43067 5.02133 9.64533 5.60533C10.2133 5.87867 10.8787 6.112 11.6667 6.33333C10.9731 6.51749 10.2967 6.76152 9.64533 7.06267C8.43067 7.64667 7.65333 8.416 7.06267 9.63867C6.75922 10.2914 6.51513 10.9702 6.33333 11.6667C6.11333 10.8747 5.88 10.2067 5.604 9.63867C5.01333 8.41467 4.236 7.64667 3.02133 7.06267C2.37072 6.7596 1.69423 6.51551 1 6.33333Z" stroke="currentColor" stroke-width="2" stroke-linecap="round" stroke-linejoin="round"/>
  </g>
  <g transform="translate(8.33333 8.33333)">
    <path d="M1 10.3333C1.74368 10.1273 2.47853 9.8907 3.20267 9.624C6.592 8.35333 8.34 6.64 9.624 3.216C9.89257 2.488 10.1292 1.74864 10.3333 1C10.5374 1.74864 10.7741 2.488 11.0427 3.216C12.3267 6.63867 14.076 8.35333 17.464 9.624C18.1307 9.87289 18.8649 10.1093 19.6667 10.3333C18.923 10.5393 18.1881 10.776 17.464 11.0427C14.0747 12.3133 12.3253 14.0267 11.0427 17.4507C10.7741 18.1787 10.5374 18.918 10.3333 19.6667C10.1292 18.918 9.89257 18.1787 9.624 17.4507C8.34 14.0267 6.59067 12.3133 3.20267 11.0427C2.47853 10.776 1.74368 10.5393 1 10.3333Z" stroke="currentColor" stroke-width="2" stroke-linecap="round" stroke-linejoin="round"/>
  </g>
</svg>