<svg xmlns="http://www.w3.org/2000/svg" viewBox="0 0 48 48" width="48" height="48" fill="none">
  <g transform="translate(4.5 4.5)">
    <path d="M1.5 9.5C2.54036 9.2244 3.55483 8.85903 4.532 8.408C6.354 7.532 7.52 6.378 8.406 4.544C8.82 3.688 9.17 2.688 9.5 1.5C9.83 2.69 10.18 3.69 10.594 4.542C11.48 6.378 12.646 7.532 14.468 8.408C15.32 8.818 16.318 9.168 17.5 9.5C16.4596 9.77624 15.4451 10.1423 14.468 10.594C12.646 11.47 11.48 12.624 10.594 14.458C10.1388 15.4371 9.77269 16.4552 9.5 17.5C9.17 16.312 8.82 15.31 8.406 14.458C7.52 12.622 6.354 11.47 4.532 10.594C3.55608 10.1394 2.54135 9.77326 1.5 9.5Z" stroke="currentColor" stroke-width="3" stroke-linecap="round" stroke-linejoin="round"/>
  </g>
  <g transform="translate(12.5 12.5)">
    <path d="M1.5 15.5C2.61552 15.191 3.7178 14.836 4.804 14.436C9.888 12.53 12.51 9.96 14.436 4.824C14.8389 3.73201 15.1939 2.62295 15.5 1.5C15.8061 2.62295 16.1611 3.73201 16.564 4.824C18.49 9.958 21.114 12.53 26.196 14.436C27.196 14.8093 28.2973 15.164 29.5 15.5C28.3845 15.809 27.2822 16.164 26.196 16.564C21.112 18.47 18.488 21.04 16.564 26.176C16.1611 27.268 15.8061 28.377 15.5 29.5C15.1939 28.377 14.8389 27.268 14.436 26.176C12.51 21.04 9.886 18.47 4.804 16.564C3.7178 16.164 2.61552 15.809 1.5 15.5Z" stroke="currentColor" stroke-width="3" stroke-linecap="round" stroke-linejoin="round"/>
  </g>
</svg>