<svg xmlns="http://www.w3.org/2000/svg" viewBox="0 0 39 39" fill="none">
<path id="Vector" d="M1.5 19.5C1.5 21.8638 1.96558 24.2044 2.87017 26.3883C3.77475 28.5722 5.10062 30.5565 6.77208 32.2279C8.44353 33.8994 10.4278 35.2252 12.6117 36.1298C14.7956 37.0344 17.1362 37.5 19.5 37.5C21.8638 37.5 24.2044 37.0344 26.3883 36.1298C28.5722 35.2252 30.5565 33.8994 32.2279 32.2279C33.8994 30.5565 35.2252 28.5722 36.1298 26.3883C37.0344 24.2044 37.5 21.8638 37.5 19.5C37.5 17.1362 37.0344 14.7956 36.1298 12.6117C35.2252 10.4278 33.8994 8.44353 32.2279 6.77208C30.5565 5.10062 28.5722 3.77475 26.3883 2.87017C24.2044 1.96558 21.8638 1.5 19.5 1.5C17.1362 1.5 14.7956 1.96558 12.6117 2.87017C10.4278 3.77475 8.44353 5.10062 6.77208 6.77208C5.10062 8.44353 3.77475 10.4278 2.87017 12.6117C1.96558 14.7956 1.5 17.1362 1.5 19.5Z" stroke="currentColor" stroke-width="3" stroke-linecap="round" stroke-linejoin="round"/>
</svg>
