<svg xmlns="http://www.w3.org/2000/svg" viewBox="0 0 13 13" fill="none">
<path id="Vector" d="M0.5 6.5C0.5 7.28793 0.655195 8.06815 0.956723 8.7961C1.25825 9.52405 1.70021 10.1855 2.25736 10.7426C2.81451 11.2998 3.47595 11.7417 4.2039 12.0433C4.93185 12.3448 5.71207 12.5 6.5 12.5C7.28793 12.5 8.06815 12.3448 8.7961 12.0433C9.52405 11.7417 10.1855 11.2998 10.7426 10.7426C11.2998 10.1855 11.7417 9.52405 12.0433 8.7961C12.3448 8.06815 12.5 7.28793 12.5 6.5C12.5 5.71207 12.3448 4.93185 12.0433 4.2039C11.7417 3.47595 11.2998 2.81451 10.7426 2.25736C10.1855 1.70021 9.52405 1.25825 8.7961 0.956723C8.06815 0.655195 7.28793 0.5 6.5 0.5C5.71207 0.5 4.93185 0.655195 4.2039 0.956723C3.47595 1.25825 2.81451 1.70021 2.25736 2.25736C1.70021 2.81451 1.25825 3.47595 0.956723 4.2039C0.655195 4.93185 0.5 5.71207 0.5 6.5Z" stroke="currentColor" stroke-linecap="round" stroke-linejoin="round"/>
</svg>
