<svg xmlns="http://www.w3.org/2000/svg" viewBox="0 0 48 48" width="48" height="48" fill="none">
  <g transform="translate(14.5 14.5)">
    <path d="M1.5 6.834C1.5 5.41933 2.06197 4.06261 3.06229 3.06229C4.06261 2.06197 5.41933 1.5 6.834 1.5H24.166C24.8665 1.5 25.5601 1.63797 26.2072 1.90603C26.8544 2.17409 27.4424 2.56698 27.9377 3.06229C28.433 3.5576 28.8259 4.14562 29.094 4.79277C29.362 5.43992 29.5 6.13353 29.5 6.834V24.166C29.5 24.8665 29.362 25.5601 29.094 26.2072C28.8259 26.8544 28.433 27.4424 27.9377 27.9377C27.4424 28.433 26.8544 28.8259 26.2072 29.094C25.5601 29.362 24.8665 29.5 24.166 29.5H6.834C6.13353 29.5 5.43992 29.362 4.79277 29.094C4.14562 28.8259 3.5576 28.433 3.06229 27.9377C2.56698 27.4424 2.17409 26.8544 1.90603 26.2072C1.63797 25.5601 1.5 24.8665 1.5 24.166V6.834Z" stroke="currentColor" stroke-width="3" stroke-linecap="round" stroke-linejoin="round"/>
  </g>
  <g transform="translate(7.5 7.5)">
    <path d="M3.524 28.974C2.91069 28.6244 2.40055 28.119 2.04515 27.509C1.68976 26.899 1.50171 26.206 1.5 25.5V5.5C1.5 3.3 3.3 1.5 5.5 1.5H25.5C27 1.5 27.816 2.27 28.5 3.5" stroke="currentColor" stroke-width="3" stroke-linecap="round" stroke-linejoin="round"/>
  </g>
</svg>