<svg xmlns="http://www.w3.org/2000/svg" viewBox="0 0 20 20" width="20" height="20" fill="none">
  <g transform="translate(6.45833 6.45833)">
    <path d="M0.625 2.8475C0.625 2.25806 0.859155 1.69275 1.27596 1.27596C1.69275 0.859155 2.25806 0.625 2.8475 0.625H10.0692C10.361 0.625 10.65 0.682487 10.9197 0.794178C11.1893 0.905869 11.4343 1.06958 11.6407 1.27596C11.8471 1.48233 12.0108 1.72734 12.1225 1.99699C12.2342 2.26663 12.2917 2.55564 12.2917 2.8475V10.0692C12.2917 10.361 12.2342 10.65 12.1225 10.9197C12.0108 11.1893 11.8471 11.4343 11.6407 11.6407C11.4343 11.8471 11.1893 12.0108 10.9197 12.1225C10.65 12.2342 10.361 12.2917 10.0692 12.2917H2.8475C2.55564 12.2917 2.26663 12.2342 1.99699 12.1225C1.72734 12.0108 1.48233 11.8471 1.27596 11.6407C1.06958 11.4343 0.905869 11.1893 0.794178 10.9197C0.682487 10.65 0.625 10.361 0.625 10.0692V2.8475Z" stroke="currentColor" stroke-width="1.25" stroke-linecap="round" stroke-linejoin="round"/>
  </g>
  <g transform="translate(3.125 3.125)">
    <path d="M1.46834 12.0725C1.21279 11.9268 1.00023 11.7162 0.852148 11.4621C0.704067 11.2079 0.625711 10.9192 0.625002 10.625V2.29167C0.625002 1.375 1.375 0.625 2.29167 0.625H10.625C11.25 0.625 11.59 0.945833 11.875 1.45833" stroke="currentColor" stroke-width="1.25" stroke-linecap="round" stroke-linejoin="round"/>
  </g>
</svg>