<svg xmlns="http://www.w3.org/2000/svg" viewBox="0 0 32 32" width="32" height="32" fill="none">
  <g transform="translate(9.66667 9.66667)">
    <path d="M1 4.556C1 3.61289 1.37465 2.70841 2.04153 2.04153C2.70841 1.37465 3.61289 1 4.556 1H16.1107C16.5776 1 17.0401 1.09198 17.4715 1.27068C17.9029 1.44939 18.2949 1.71132 18.6251 2.04153C18.9553 2.37173 19.2173 2.76374 19.396 3.19518C19.5747 3.62661 19.6667 4.08902 19.6667 4.556V16.1107C19.6667 16.5776 19.5747 17.0401 19.396 17.4715C19.2173 17.9029 18.9553 18.2949 18.6251 18.6251C18.2949 18.9553 17.9029 19.2173 17.4715 19.396C17.0401 19.5747 16.5776 19.6667 16.1107 19.6667H4.556C4.08902 19.6667 3.62661 19.5747 3.19518 19.396C2.76374 19.2173 2.37173 18.9553 2.04153 18.6251C1.71132 18.2949 1.44939 17.9029 1.27068 17.4715C1.09198 17.0401 1 16.5776 1 16.1107V4.556Z" stroke="currentColor" stroke-width="2" stroke-linecap="round" stroke-linejoin="round"/>
  </g>
  <g transform="translate(5 5)">
    <path d="M2.34934 19.316C1.94046 19.0829 1.60037 18.746 1.36344 18.3393C1.12651 17.9327 1.00114 17.4707 1 17V3.66667C1 2.2 2.2 1 3.66667 1H17C18 1 18.544 1.51333 19 2.33333" stroke="currentColor" stroke-width="2" stroke-linecap="round" stroke-linejoin="round"/>
  </g>
</svg>