<svg xmlns="http://www.w3.org/2000/svg" viewBox="0 0 24 24" width="24" height="24" fill="none">
  <g transform="translate(7.25 7.25)">
    <path d="M0.75 3.417C0.75 2.70967 1.03099 2.03131 1.53115 1.53115C2.03131 1.03099 2.70967 0.75 3.417 0.75H12.083C12.4332 0.75 12.78 0.818984 13.1036 0.953013C13.4272 1.08704 13.7212 1.28349 13.9689 1.53115C14.2165 1.7788 14.413 2.07281 14.547 2.39638C14.681 2.71996 14.75 3.06676 14.75 3.417V12.083C14.75 12.4332 14.681 12.78 14.547 13.1036C14.413 13.4272 14.2165 13.7212 13.9689 13.9689C13.7212 14.2165 13.4272 14.413 13.1036 14.547C12.78 14.681 12.4332 14.75 12.083 14.75H3.417C3.06676 14.75 2.71996 14.681 2.39638 14.547C2.07281 14.413 1.7788 14.2165 1.53115 13.9689C1.28349 13.7212 1.08704 13.4272 0.953013 13.1036C0.818984 12.78 0.75 12.4332 0.75 12.083V3.417Z" stroke="currentColor" stroke-width="1.5" stroke-linecap="round" stroke-linejoin="round"/>
  </g>
  <g transform="translate(3.75 3.75)">
    <path d="M1.762 14.487C1.45534 14.3122 1.20027 14.0595 1.02258 13.7545C0.84488 13.4495 0.750853 13.103 0.750002 12.75V2.75C0.750002 1.65 1.65 0.75 2.75 0.75H12.75C13.5 0.75 13.908 1.135 14.25 1.75" stroke="currentColor" stroke-width="1.5" stroke-linecap="round" stroke-linejoin="round"/>
  </g>
</svg>