<svg xmlns="http://www.w3.org/2000/svg" viewBox="0 0 16 16" width="16" height="16" fill="none">
  <g transform="translate(5.16667 4.83333)">
    <path d="M0.5 2.278C0.5 1.80644 0.687324 1.3542 1.02076 1.02076C1.3542 0.687324 1.80644 0.5 2.278 0.5H8.05533C8.28882 0.5 8.52003 0.545989 8.73574 0.635342C8.95146 0.724695 9.14747 0.855661 9.31257 1.02076C9.47767 1.18587 9.60864 1.38187 9.69799 1.59759C9.78734 1.81331 9.83333 2.04451 9.83333 2.278V8.05533C9.83333 8.28882 9.78734 8.52003 9.69799 8.73574C9.60864 8.95146 9.47767 9.14747 9.31257 9.31257C9.14747 9.47767 8.95146 9.60864 8.73574 9.69799C8.52003 9.78734 8.28882 9.83333 8.05533 9.83333H2.278C2.04451 9.83333 1.81331 9.78734 1.59759 9.69799C1.38187 9.60864 1.18587 9.47767 1.02076 9.31257C0.855661 9.14747 0.724695 8.95146 0.635342 8.73574C0.545989 8.52003 0.5 8.28882 0.5 8.05533V2.278Z" stroke="currentColor" stroke-linecap="round" stroke-linejoin="round"/>
  </g>
  <g transform="translate(2.5 2.5)">
    <path d="M1.17467 9.658C0.970229 9.54145 0.800183 9.373 0.681718 9.16966C0.563253 8.96633 0.500569 8.73533 0.500001 8.5V1.83333C0.500001 1.1 1.1 0.5 1.83333 0.5H8.5C9 0.5 9.272 0.756667 9.5 1.16667" stroke="currentColor" stroke-linecap="round" stroke-linejoin="round"/>
  </g>
</svg>