<svg xmlns="http://www.w3.org/2000/svg" viewBox="0 0 24 24" width="24" height="24" fill="currentColor">
  <path d="M12 2C6.48 2 2 6.48 2 12s4.48 10 10 10 10-4.48 10-10S17.52 2 12 2zm1 17h-2v-2h2v2zm2.07-7.75c-.9.9-1.42 2.26-1.39 3.54H11c-.03-1.6.53-3.12 1.75-4.35.73-.73 1.25-1.5 1.25-2.65 0-2.04-1.66-3.75-3.75-3.75S5.5 4.96 5.5 7h2c0-1.04.84-1.87 1.87-1.87 1.04 0 1.87.83 1.87 1.87 0 .55-.23 1.03-.75 1.55z" stroke="currentColor" stroke-width="1.5" fill="none" stroke-linecap="round" stroke-linejoin="round"/>
</svg>