<svg xmlns="http://www.w3.org/2000/svg" viewBox="0 0 48 48" width="48" height="48" fill="none">
  <g transform="translate(4.5 4.5)">
    <path d="M1.5 19.5C1.5 21.8638 1.96558 24.2044 2.87017 26.3883C3.77475 28.5722 5.10062 30.5565 6.77208 32.2279C8.44353 33.8994 10.4278 35.2252 12.6117 36.1298C14.7956 37.0344 17.1362 37.5 19.5 37.5C21.8638 37.5 24.2044 37.0344 26.3883 36.1298C28.5722 35.2252 30.5565 33.8994 32.2279 32.2279C33.8994 30.5565 35.2252 28.5722 36.1298 26.3883C37.0344 24.2044 37.5 21.8638 37.5 19.5C37.5 17.1362 37.0344 14.7956 36.1298 12.6117C35.2252 10.4278 33.8994 8.44353 32.2279 6.77208C30.5565 5.10062 28.5722 3.77475 26.3883 2.87017C24.2044 1.96558 21.8638 1.5 19.5 1.5C17.1362 1.5 14.7956 1.96558 12.6117 2.87017C10.4278 3.77475 8.44353 5.10062 6.77208 6.77208C5.10062 8.44353 3.77475 10.4278 2.87017 12.6117C1.96558 14.7956 1.5 17.1362 1.5 19.5Z" stroke="currentColor" stroke-width="3" stroke-linecap="round" stroke-linejoin="round"/>
  </g>
  <g transform="translate(18.5 12.5)">
    <path d="M5.50008 14.557C5.46326 13.9077 5.6384 13.2641 5.99912 12.723C6.35984 12.1819 6.88661 11.7727 7.50008 11.557C8.25183 11.2695 8.92658 10.8114 9.47122 10.2189C10.0159 9.62631 10.4155 8.91541 10.6387 8.14215C10.8619 7.36888 10.9026 6.55436 10.7575 5.7627C10.6125 4.97105 10.2856 4.22387 9.80271 3.58C9.31981 2.93613 8.69404 2.41314 7.97467 2.05221C7.2553 1.69128 6.46197 1.50225 5.65713 1.50002C4.8523 1.49779 4.05793 1.68241 3.33657 2.03934C2.61521 2.39628 1.98655 2.91579 1.50008 3.55697" stroke="currentColor" stroke-width="3" stroke-linecap="round" stroke-linejoin="round"/>
  </g>
  <g transform="translate(22.5 32.5)">
    <path d="M1.5 1.5V1.51958" stroke="currentColor" stroke-width="3" stroke-linecap="round" stroke-linejoin="round"/>
  </g>
</svg>