<svg xmlns="http://www.w3.org/2000/svg" viewBox="0 0 24 24" width="24" height="24" fill="none">
  <g transform="translate(2.25 2.25)">
    <path d="M0.75 9.75C0.75 10.9319 0.982792 12.1022 1.43508 13.1942C1.88738 14.2861 2.55031 15.2782 3.38604 16.114C4.22177 16.9497 5.21392 17.6126 6.30585 18.0649C7.39778 18.5172 8.5681 18.75 9.75 18.75C10.9319 18.75 12.1022 18.5172 13.1942 18.0649C14.2861 17.6126 15.2782 16.9497 16.114 16.114C16.9497 15.2782 17.6126 14.2861 18.0649 13.1942C18.5172 12.1022 18.75 10.9319 18.75 9.75C18.75 8.5681 18.5172 7.39778 18.0649 6.30585C17.6126 5.21392 16.9497 4.22177 16.114 3.38604C15.2782 2.55031 14.2861 1.88738 13.1942 1.43508C12.1022 0.982792 10.9319 0.75 9.75 0.75C8.5681 0.75 7.39778 0.982792 6.30585 1.43508C5.21392 1.88738 4.22177 2.55031 3.38604 3.38604C2.55031 4.22177 1.88738 5.21392 1.43508 6.30585C0.982792 7.39778 0.75 8.5681 0.75 9.75Z" stroke="currentColor" stroke-width="1.5" stroke-linecap="round" stroke-linejoin="round"/>
  </g>
  <g transform="translate(9.25 6.25)">
    <path d="M2.75004 7.27849C2.73163 6.95386 2.8192 6.63204 2.99956 6.3615C3.17992 6.09096 3.4433 5.88635 3.75004 5.77849C4.12591 5.63475 4.46329 5.40572 4.73561 5.10944C5.00793 4.81316 5.20776 4.45771 5.31936 4.07107C5.43097 3.68444 5.45131 3.27718 5.37877 2.88135C5.30623 2.48552 5.14281 2.11194 4.90136 1.79C4.6599 1.46807 4.34702 1.20657 3.98733 1.0261C3.62765 0.845638 3.23098 0.751126 2.82857 0.75001C2.42615 0.748894 2.02897 0.841204 1.66829 1.01967C1.30761 1.19814 0.993275 1.45789 0.750041 1.77849" stroke="currentColor" stroke-width="1.5" stroke-linecap="round" stroke-linejoin="round"/>
  </g>
  <g transform="translate(11.25 16.25)">
    <path d="M0.75 0.75V0.76" stroke="currentColor" stroke-width="1.5" stroke-linecap="round" stroke-linejoin="round"/>
  </g>
</svg>