<svg xmlns="http://www.w3.org/2000/svg" viewBox="0 0 16 16" width="16" height="16" fill="none">
  <g transform="translate(2.83333 2.83333)">
    <path d="M3.16667 0.5H1.83333C1.47971 0.5 1.14057 0.640476 0.890524 0.890524C0.640476 1.14057 0.5 1.47971 0.5 1.83333V9.83333C0.5 10.187 0.640476 10.5261 0.890524 10.7761C1.14057 11.0262 1.47971 11.1667 1.83333 11.1667H8.5C8.85362 11.1667 9.19276 11.0262 9.44281 10.7761C9.69286 10.5261 9.83333 10.187 9.83333 9.83333V1.83333C9.83333 1.47971 9.69286 1.14057 9.44281 0.890524C9.19276 0.640476 8.85362 0.5 8.5 0.5H7.16667" stroke="currentColor" stroke-linecap="round" stroke-linejoin="round"/>
  </g>
  <g transform="translate(5.5 1.5)">
    <path d="M0.5 1.83333C0.5 1.47971 0.640476 1.14057 0.890525 0.890524C1.14057 0.640476 1.47971 0.5 1.83333 0.5H3.16667C3.52029 0.5 3.85943 0.640476 4.10948 0.890524C4.35952 1.14057 4.5 1.47971 4.5 1.83333C4.5 2.18696 4.35952 2.52609 4.10948 2.77614C3.85943 3.02619 3.52029 3.16667 3.16667 3.16667H1.83333C1.47971 3.16667 1.14057 3.02619 0.890525 2.77614C0.640476 2.52609 0.5 2.18696 0.5 1.83333Z" stroke="currentColor" stroke-linecap="round" stroke-linejoin="round"/>
  </g>
  <g transform="translate(6.16667 8.83333)">
    <path d="M0.5 0.5H3.16667" stroke="currentColor" stroke-linecap="round" stroke-linejoin="round"/>
  </g>
  <g transform="translate(7.5 7.5)">
    <path d="M0.5 0.5V3.16667" stroke="currentColor" stroke-linecap="round" stroke-linejoin="round"/>
  </g>
</svg>