<svg xmlns="http://www.w3.org/2000/svg" viewBox="0 0 24 24" width="24" height="24" fill="none">
  <g transform="translate(4.25 4.25)">
    <path d="M4.75 0.75H2.75C2.21957 0.75 1.71086 0.960714 1.33579 1.33579C0.960714 1.71086 0.75 2.21957 0.75 2.75V14.75C0.75 15.2804 0.960714 15.7891 1.33579 16.1642C1.71086 16.5393 2.21957 16.75 2.75 16.75H12.75C13.2804 16.75 13.7891 16.5393 14.1642 16.1642C14.5393 15.7891 14.75 15.2804 14.75 14.75V2.75C14.75 2.21957 14.5393 1.71086 14.1642 1.33579C13.7891 0.960714 13.2804 0.75 12.75 0.75H10.75" stroke="currentColor" stroke-width="1.5" stroke-linecap="round" stroke-linejoin="round"/>
  </g>
  <g transform="translate(8.25 2.25)">
    <path d="M0.75 2.75C0.75 2.21957 0.960714 1.71086 1.33579 1.33579C1.71086 0.960714 2.21957 0.75 2.75 0.75H4.75C5.28043 0.75 5.78914 0.960714 6.16421 1.33579C6.53929 1.71086 6.75 2.21957 6.75 2.75C6.75 3.28043 6.53929 3.78914 6.16421 4.16421C5.78914 4.53929 5.28043 4.75 4.75 4.75H2.75C2.21957 4.75 1.71086 4.53929 1.33579 4.16421C0.960714 3.78914 0.75 3.28043 0.75 2.75Z" stroke="currentColor" stroke-width="1.5" stroke-linecap="round" stroke-linejoin="round"/>
  </g>
  <g transform="translate(9.25 13.25)">
    <path d="M0.75 0.75H4.75" stroke="currentColor" stroke-width="1.5" stroke-linecap="round" stroke-linejoin="round"/>
  </g>
  <g transform="translate(11.25 11.25)">
    <path d="M0.75 0.75V4.75" stroke="currentColor" stroke-width="1.5" stroke-linecap="round" stroke-linejoin="round"/>
  </g>
</svg>