<svg xmlns="http://www.w3.org/2000/svg" viewBox="0 0 48 48" width="48" height="48" fill="none">
  <g transform="translate(8.5 8.5)">
    <path d="M9.5 1.5H5.5C4.43913 1.5 3.42172 1.92143 2.67157 2.67157C1.92143 3.42172 1.5 4.43913 1.5 5.5V29.5C1.5 30.5609 1.92143 31.5783 2.67157 32.3284C3.42172 33.0786 4.43913 33.5 5.5 33.5H25.5C26.5609 33.5 27.5783 33.0786 28.3284 32.3284C29.0786 31.5783 29.5 30.5609 29.5 29.5V5.5C29.5 4.43913 29.0786 3.42172 28.3284 2.67157C27.5783 1.92143 26.5609 1.5 25.5 1.5H21.5" stroke="currentColor" stroke-width="3" stroke-linecap="round" stroke-linejoin="round"/>
  </g>
  <g transform="translate(16.5 4.5)">
    <path d="M1.5 5.5C1.5 4.43913 1.92143 3.42172 2.67157 2.67157C3.42172 1.92143 4.43913 1.5 5.5 1.5H9.5C10.5609 1.5 11.5783 1.92143 12.3284 2.67157C13.0786 3.42172 13.5 4.43913 13.5 5.5C13.5 6.56087 13.0786 7.57828 12.3284 8.32843C11.5783 9.07857 10.5609 9.5 9.5 9.5H5.5C4.43913 9.5 3.42172 9.07857 2.67157 8.32843C1.92143 7.57828 1.5 6.56087 1.5 5.5Z" stroke="currentColor" stroke-width="3" stroke-linecap="round" stroke-linejoin="round"/>
  </g>
  <g transform="translate(18.5 26.5)">
    <path d="M1.5 1.5H9.5" stroke="currentColor" stroke-width="3" stroke-linecap="round" stroke-linejoin="round"/>
  </g>
  <g transform="translate(22.5 22.5)">
    <path d="M1.5 1.5V9.5" stroke="currentColor" stroke-width="3" stroke-linecap="round" stroke-linejoin="round"/>
  </g>
</svg>