<svg xmlns="http://www.w3.org/2000/svg" viewBox="0 0 32 32" width="32" height="32" fill="none">
  <g transform="translate(5.66667 5.66667)">
    <path d="M6.33333 1H3.66667C2.95942 1 2.28115 1.28095 1.78105 1.78105C1.28095 2.28115 1 2.95942 1 3.66667V19.6667C1 20.3739 1.28095 21.0522 1.78105 21.5523C2.28115 22.0524 2.95942 22.3333 3.66667 22.3333H17C17.7072 22.3333 18.3855 22.0524 18.8856 21.5523C19.3857 21.0522 19.6667 20.3739 19.6667 19.6667V3.66667C19.6667 2.95942 19.3857 2.28115 18.8856 1.78105C18.3855 1.28095 17.7072 1 17 1H14.3333" stroke="currentColor" stroke-width="2" stroke-linecap="round" stroke-linejoin="round"/>
  </g>
  <g transform="translate(10 3)">
    <path d="M1 3.66667C1 2.95942 1.28095 2.28115 1.78105 1.78105C2.28115 1.28095 2.95942 1 3.66667 1H6.33333C7.04058 1 7.71885 1.28095 8.21895 1.78105C8.71905 2.28115 9 2.95942 9 3.66667C9 4.37391 8.71905 5.05219 8.21895 5.55229C7.71885 6.05238 7.04058 6.33333 6.33333 6.33333H3.66667C2.95942 6.33333 2.28115 6.05238 1.78105 5.55229C1.28095 5.05219 1 4.37391 1 3.66667Z" stroke="currentColor" stroke-width="2" stroke-linecap="round" stroke-linejoin="round"/>
  </g>
  <g transform="translate(12.33333 16.66667)">
    <path d="M1 1H6.33333" stroke="currentColor" stroke-width="2" stroke-linecap="round" stroke-linejoin="round"/>
  </g>
  <g transform="translate(15 15)">
    <path d="M1 1V6.33333" stroke="currentColor" stroke-width="2" stroke-linecap="round" stroke-linejoin="round"/>
  </g>
</svg>