<svg xmlns="http://www.w3.org/2000/svg" viewBox="0 0 24 24" width="24" height="24" fill="none">
  <g transform="translate(2.25 2.25)">
    <path d="M0.75 2.75C0.75 2.21957 0.960714 1.71086 1.33579 1.33579C1.71086 0.960714 2.21957 0.75 2.75 0.75H16.75C17.2804 0.75 17.7891 0.960714 18.1642 1.33579C18.5393 1.71086 18.75 2.21957 18.75 2.75V16.75C18.75 17.2804 18.5393 17.7891 18.1642 18.1642C17.7891 18.5393 17.2804 18.75 16.75 18.75H2.75C2.21957 18.75 1.71086 18.5393 1.33579 18.1642C0.960714 17.7891 0.75 17.2804 0.75 16.75V2.75Z" stroke="currentColor" stroke-width="1.5" stroke-linecap="round" stroke-linejoin="round"/>
  </g>
  <g transform="translate(9.25 7.25)">
    <path d="M0.75 8.75V0.75H3.417C4.153 0.75 4.75 1.645 4.75 2.75C4.75 3.855 4.153 4.75 3.417 4.75H0.75" stroke="currentColor" stroke-width="1.5" stroke-linecap="round" stroke-linejoin="round"/>
  </g>
</svg>