<svg xmlns="http://www.w3.org/2000/svg" viewBox="0 0 20 20" width="20" height="20" fill="none">
  <g transform="translate(1.875 1.875)">
    <path d="M0.625 2.29167C0.625 1.84964 0.800595 1.42572 1.11316 1.11316C1.42572 0.800595 1.84964 0.625 2.29167 0.625H13.9583C14.4004 0.625 14.8243 0.800595 15.1368 1.11316C15.4494 1.42572 15.625 1.84964 15.625 2.29167V13.9583C15.625 14.4004 15.4494 14.8243 15.1368 15.1368C14.8243 15.4494 14.4004 15.625 13.9583 15.625H2.29167C1.84964 15.625 1.42572 15.4494 1.11316 15.1368C0.800595 14.8243 0.625 14.4004 0.625 13.9583V2.29167Z" stroke="currentColor" stroke-width="1.25" stroke-linecap="round" stroke-linejoin="round"/>
  </g>
  <g transform="translate(7.70833 6.04167)">
    <path d="M0.625 7.29167V0.625H2.8475C3.46083 0.625 3.95833 1.37083 3.95833 2.29167C3.95833 3.2125 3.46083 3.95833 2.8475 3.95833H0.625" stroke="currentColor" stroke-width="1.25" stroke-linecap="round" stroke-linejoin="round"/>
  </g>
</svg>