<svg xmlns="http://www.w3.org/2000/svg" viewBox="0 0 20 20" width="20" height="20" fill="none">
  <g transform="translate(1.9169 1.9169)">
    <path d="M1.83312 8.49979L8.49979 1.83312C9.27334 1.05957 10.3225 0.625 11.4165 0.625C12.5104 0.625 13.5596 1.05957 14.3331 1.83312C15.1067 2.60667 15.5412 3.65583 15.5412 4.74979C15.5412 5.84375 15.1067 6.89291 14.3331 7.66646L7.66646 14.3331C6.89291 15.1067 5.84375 15.5412 4.74979 15.5412C3.65583 15.5412 2.60667 15.1067 1.83312 14.3331C1.05957 13.5596 0.625 12.5104 0.625 11.4165C0.625 10.3225 1.05957 9.27334 1.83312 8.49979Z" stroke="currentColor" stroke-width="1.25" stroke-linecap="round" stroke-linejoin="round"/>
  </g>
  <g transform="translate(6.45833 6.45833)">
    <path d="M0.625 0.625L6.45833 6.45833" stroke="currentColor" stroke-width="1.25" stroke-linecap="round" stroke-linejoin="round"/>
  </g>
</svg>