<svg xmlns="http://www.w3.org/2000/svg" viewBox="0 0 20 20" width="20" height="20" fill="none">
  <g transform="translate(3.54167 1.875)">
    <path d="M0.625 15.625V2.29167C0.625 1.84964 0.800595 1.42572 1.11316 1.11316C1.42572 0.800595 1.84964 0.625 2.29167 0.625H10.625C11.067 0.625 11.491 0.800595 11.8035 1.11316C12.1161 1.42572 12.2917 1.84964 12.2917 2.29167V15.625L9.79167 13.9583L8.125 15.625L6.45833 13.9583L4.79167 15.625L3.125 13.9583L0.625 15.625Z" stroke="currentColor" stroke-width="1.25" stroke-linecap="round" stroke-linejoin="round"/>
  </g>
  <g transform="translate(6.875 5.20833)">
    <path d="M5.45833 1.45928C5.30737 1.19741 5.08804 0.98153 4.82382 0.834738C4.55959 0.687947 4.26042 0.615774 3.95833 0.625944H2.29167C1.84964 0.625944 1.42572 0.801539 1.11316 1.1141C0.800595 1.42666 0.625 1.85058 0.625 2.29261C0.625 2.73464 0.800595 3.15856 1.11316 3.47112C1.42572 3.78368 1.84964 3.95928 2.29167 3.95928H3.95833C4.40036 3.95928 4.82428 4.13487 5.13684 4.44743C5.4494 4.75999 5.625 5.18392 5.625 5.62594C5.625 6.06797 5.4494 6.49189 5.13684 6.80446C4.82428 7.11702 4.40036 7.29261 3.95833 7.29261H2.29167C1.98958 7.30278 1.69041 7.23061 1.42618 7.08382C1.16196 6.93703 0.942626 6.72114 0.791667 6.45928" stroke="currentColor" stroke-width="1.25" stroke-linecap="round" stroke-linejoin="round"/>
  </g>
  <g transform="translate(9.375 4.375)">
    <path d="M0.625 0.625V8.95833" stroke="currentColor" stroke-width="1.25" stroke-linecap="round" stroke-linejoin="round"/>
  </g>
</svg>