<svg xmlns="http://www.w3.org/2000/svg" viewBox="0 0 16 16" width="16" height="16" fill="none">
  <g transform="translate(2.83333 1.5)">
    <path d="M0.5 12.5V1.83333C0.5 1.47971 0.640476 1.14057 0.890524 0.890524C1.14057 0.640476 1.47971 0.5 1.83333 0.5H8.5C8.85362 0.5 9.19276 0.640476 9.44281 0.890524C9.69286 1.14057 9.83334 1.47971 9.83334 1.83333V12.5L7.83333 11.1667L6.5 12.5L5.16667 11.1667L3.83333 12.5L2.5 11.1667L0.5 12.5Z" stroke="currentColor" stroke-linecap="round" stroke-linejoin="round"/>
  </g>
  <g transform="translate(5.5 4.16667)">
    <path d="M4.36667 1.16742C4.2459 0.95793 4.07043 0.785224 3.85905 0.667791C3.64768 0.550358 3.40834 0.492619 3.16667 0.500755H1.83333C1.47971 0.500755 1.14057 0.641231 0.890525 0.891279C0.640476 1.14133 0.5 1.48047 0.5 1.83409C0.5 2.18771 0.640476 2.52685 0.890525 2.7769C1.14057 3.02695 1.47971 3.16742 1.83333 3.16742H3.16667C3.52029 3.16742 3.85943 3.3079 4.10948 3.55795C4.35952 3.808 4.5 4.14713 4.5 4.50076C4.5 4.85438 4.35952 5.19352 4.10948 5.44356C3.85943 5.69361 3.52029 5.83409 3.16667 5.83409H1.83333C1.59166 5.84223 1.35232 5.78449 1.14095 5.66705C0.929566 5.54962 0.754101 5.37691 0.633333 5.16742" stroke="currentColor" stroke-linecap="round" stroke-linejoin="round"/>
  </g>
  <g transform="translate(7.5 3.5)">
    <path d="M0.5 0.5V7.16667" stroke="currentColor" stroke-linecap="round" stroke-linejoin="round"/>
  </g>
</svg>