<svg xmlns="http://www.w3.org/2000/svg" viewBox="0 0 24 24" width="24" height="24" fill="none">
  <g transform="translate(4.25 2.25)">
    <path d="M0.75 18.75V2.75C0.75 2.21957 0.960714 1.71086 1.33579 1.33579C1.71086 0.960714 2.21957 0.75 2.75 0.75H12.75C13.2804 0.75 13.7891 0.960714 14.1642 1.33579C14.5393 1.71086 14.75 2.21957 14.75 2.75V18.75L11.75 16.75L9.75 18.75L7.75 16.75L5.75 18.75L3.75 16.75L0.75 18.75Z" stroke="currentColor" stroke-width="1.5" stroke-linecap="round" stroke-linejoin="round"/>
  </g>
  <g transform="translate(8.25 6.25)">
    <path d="M6.55 1.75113C6.36885 1.43689 6.10565 1.17784 5.78858 1.00169C5.47151 0.825536 5.11251 0.738928 4.75 0.751133H2.75C2.21957 0.751133 1.71086 0.961846 1.33579 1.33692C0.960714 1.71199 0.75 2.2207 0.75 2.75113C0.75 3.28157 0.960714 3.79027 1.33579 4.16535C1.71086 4.54042 2.21957 4.75113 2.75 4.75113H4.75C5.28043 4.75113 5.78914 4.96185 6.16421 5.33692C6.53929 5.71199 6.75 6.2207 6.75 6.75113C6.75 7.28157 6.53929 7.79027 6.16421 8.16535C5.78914 8.54042 5.28043 8.75113 4.75 8.75113H2.75C2.38749 8.76334 2.02849 8.67673 1.71142 8.50058C1.39435 8.32443 1.13115 8.06537 0.95 7.75113" stroke="currentColor" stroke-width="1.5" stroke-linecap="round" stroke-linejoin="round"/>
  </g>
  <g transform="translate(11.25 5.25)">
    <path d="M0.75 0.75V10.75" stroke="currentColor" stroke-width="1.5" stroke-linecap="round" stroke-linejoin="round"/>
  </g>
</svg>