<svg xmlns="http://www.w3.org/2000/svg" viewBox="0 0 48 48" width="48" height="48" fill="none">
  <g transform="translate(8.5 4.5)">
    <path d="M1.5 37.5V5.5C1.5 4.43913 1.92143 3.42172 2.67157 2.67157C3.42172 1.92143 4.43913 1.5 5.5 1.5H25.5C26.5609 1.5 27.5783 1.92143 28.3284 2.67157C29.0786 3.42172 29.5 4.43913 29.5 5.5V37.5L23.5 33.5L19.5 37.5L15.5 33.5L11.5 37.5L7.5 33.5L1.5 37.5Z" stroke="currentColor" stroke-width="3" stroke-linecap="round" stroke-linejoin="round"/>
  </g>
  <g transform="translate(16.5 12.5)">
    <path d="M13.1 3.50227C12.7377 2.87379 12.2113 2.35567 11.5772 2.00337C10.943 1.65107 10.225 1.47786 9.5 1.50227H5.5C4.43913 1.50227 3.42172 1.92369 2.67157 2.67384C1.92143 3.42398 1.5 4.4414 1.5 5.50227C1.5 6.56313 1.92143 7.58055 2.67157 8.33069C3.42172 9.08084 4.43913 9.50227 5.5 9.50227H9.5C10.5609 9.50227 11.5783 9.92369 12.3284 10.6738C13.0786 11.424 13.5 12.4414 13.5 13.5023C13.5 14.5631 13.0786 15.5805 12.3284 16.3307C11.5783 17.0808 10.5609 17.5023 9.5 17.5023H5.5C4.77498 17.5267 4.05697 17.3535 3.42284 17.0012C2.7887 16.6489 2.2623 16.1307 1.9 15.5023" stroke="currentColor" stroke-width="3" stroke-linecap="round" stroke-linejoin="round"/>
  </g>
  <g transform="translate(22.5 10.5)">
    <path d="M1.5 1.5V21.5" stroke="currentColor" stroke-width="3" stroke-linecap="round" stroke-linejoin="round"/>
  </g>
</svg>