<svg xmlns="http://www.w3.org/2000/svg" viewBox="0 0 32 32" width="32" height="32" fill="none">
  <g transform="translate(5.66667 3)">
    <path d="M1 25V3.66667C1 2.95942 1.28095 2.28115 1.78105 1.78105C2.28115 1.28095 2.95942 1 3.66667 1H17C17.7072 1 18.3855 1.28095 18.8856 1.78105C19.3857 2.28115 19.6667 2.95942 19.6667 3.66667V25L15.6667 22.3333L13 25L10.3333 22.3333L7.66667 25L5 22.3333L1 25Z" stroke="currentColor" stroke-width="2" stroke-linecap="round" stroke-linejoin="round"/>
  </g>
  <g transform="translate(11 8.33333)">
    <path d="M8.73333 2.33484C8.4918 1.91586 8.14087 1.57045 7.71811 1.33558C7.29535 1.10072 6.81668 0.985238 6.33333 1.00151H3.66667C2.95942 1.00151 2.28115 1.28246 1.78105 1.78256C1.28095 2.28266 1 2.96093 1 3.66818C1 4.37542 1.28095 5.0537 1.78105 5.55379C2.28115 6.05389 2.95942 6.33484 3.66667 6.33484H6.33333C7.04058 6.33484 7.71885 6.6158 8.21895 7.11589C8.71905 7.61599 9 8.29427 9 9.00151C9 9.70875 8.71905 10.387 8.21895 10.8871C7.71885 11.3872 7.04058 11.6682 6.33333 11.6682H3.66667C3.18332 11.6845 2.70465 11.569 2.28189 11.3341C1.85913 11.0992 1.5082 10.7538 1.26667 10.3348" stroke="currentColor" stroke-width="2" stroke-linecap="round" stroke-linejoin="round"/>
  </g>
  <g transform="translate(15 7)">
    <path d="M1 1V14.3333" stroke="currentColor" stroke-width="2" stroke-linecap="round" stroke-linejoin="round"/>
  </g>
</svg>