<svg preserveAspectRatio="none"  overflow="visible" style="display: block;" viewBox="0 0 16.2508 15.4167" fill="none" xmlns="http://www.w3.org/2000/svg">
<path id="Vector" d="M11.46 0.625066V3.79423C12.4913 4.391 13.2765 5.33544 13.675 6.4584H14.7925C15.0135 6.4584 15.2254 6.5462 15.3817 6.70248C15.538 6.85876 15.6258 7.07072 15.6258 7.29173V8.9584C15.6258 9.17941 15.538 9.39138 15.3817 9.54766C15.2254 9.70394 15.0135 9.79173 14.7925 9.79173H13.6741C13.3941 10.5834 12.9183 11.2917 12.2925 11.8526V13.5417C12.2925 13.8733 12.1608 14.1912 11.9264 14.4256C11.6919 14.66 11.374 14.7917 11.0425 14.7917C10.711 14.7917 10.393 14.66 10.1586 14.4256C9.92417 14.1912 9.79247 13.8733 9.79247 13.5417V13.0559C9.51709 13.102 9.23835 13.1252 8.95914 13.1251H5.62581C5.34659 13.1252 5.06785 13.102 4.79247 13.0559V13.5417C4.79247 13.8733 4.66078 14.1912 4.42636 14.4256C4.19194 14.66 3.87399 14.7917 3.54247 14.7917C3.21095 14.7917 2.89301 14.66 2.65859 14.4256C2.42417 14.1912 2.29247 13.8733 2.29247 13.5417V11.8751V11.8526C1.53744 11.1775 1.0052 10.2891 0.766209 9.30495C0.527214 8.32077 0.592732 7.28721 0.954091 6.34108C1.31545 5.39496 1.95561 4.58088 2.78984 4.00659C3.62406 3.43231 4.61302 3.1249 5.62581 3.12507H7.70914L11.4591 0.625066" stroke="currentColor" stroke-width="1.25" stroke-linecap="round" stroke-linejoin="round"/>
</svg>
