<svg preserveAspectRatio="none"  overflow="visible" style="display: block;" viewBox="0 0 39.0019 37.0002" fill="none" xmlns="http://www.w3.org/2000/svg">
<path id="Vector" d="M27.5039 1.50016V9.10616C29.9792 10.5384 31.8637 12.8051 32.8199 15.5002H35.5019C36.0324 15.5002 36.5411 15.7109 36.9161 16.0859C37.2912 16.461 37.5019 16.9697 37.5019 17.5002V21.5002C37.5019 22.0306 37.2912 22.5393 36.9161 22.9144C36.5411 23.2894 36.0324 23.5002 35.5019 23.5002H32.8179C32.1459 25.4002 31.0039 27.1002 29.5019 28.4462V32.5002C29.5019 33.2958 29.1859 34.0589 28.6233 34.6215C28.0606 35.1841 27.2976 35.5002 26.5019 35.5002C25.7063 35.5002 24.9432 35.1841 24.3806 34.6215C23.818 34.0589 23.5019 33.2958 23.5019 32.5002V31.3342C22.841 31.4449 22.1721 31.5004 21.5019 31.5002H13.5019C12.8318 31.5004 12.1628 31.4449 11.5019 31.3342V32.5002C11.5019 33.2958 11.1859 34.0589 10.6233 34.6215C10.0606 35.1841 9.29759 35.5002 8.50194 35.5002C7.70629 35.5002 6.94322 35.1841 6.38062 34.6215C5.81801 34.0589 5.50194 33.2958 5.50194 32.5002V28.5002V28.4462C3.68986 26.8261 2.41249 24.6939 1.8389 22.3319C1.26531 19.9698 1.42256 17.4893 2.28982 15.2186C3.15708 12.9479 4.69346 10.9941 6.69561 9.61582C8.69775 8.23754 11.0712 7.49977 13.5019 7.50016H18.5019L27.5019 1.50016" stroke="currentColor" stroke-width="3" stroke-linecap="round" stroke-linejoin="round"/>
</svg>
