<svg preserveAspectRatio="none"  overflow="visible" style="display: block;" viewBox="0 0 26.0013 24.6668" fill="none" xmlns="http://www.w3.org/2000/svg">
<path id="Vector" d="M18.336 1.00011V6.07077C19.9861 7.0256 21.2424 8.5367 21.88 10.3334H23.668C24.0216 10.3334 24.3607 10.4739 24.6108 10.724C24.8608 10.974 25.0013 11.3132 25.0013 11.6668V14.3334C25.0013 14.6871 24.8608 15.0262 24.6108 15.2763C24.3607 15.5263 24.0216 15.6668 23.668 15.6668H21.8786C21.4306 16.9334 20.6693 18.0668 19.668 18.9641V21.6668C19.668 22.1972 19.4572 22.7059 19.0822 23.081C18.7071 23.4561 18.1984 23.6668 17.668 23.6668C17.1375 23.6668 16.6288 23.4561 16.2537 23.081C15.8787 22.7059 15.668 22.1972 15.668 21.6668V20.8894C15.2273 20.9632 14.7814 21.0003 14.3346 21.0001H9.00129C8.55455 21.0003 8.10856 20.9632 7.66796 20.8894V21.6668C7.66796 22.1972 7.45724 22.7059 7.08217 23.081C6.7071 23.4561 6.19839 23.6668 5.66796 23.6668C5.13752 23.6668 4.62882 23.4561 4.25374 23.081C3.87867 22.7059 3.66796 22.1972 3.66796 21.6668V19.0001V18.9641C2.45991 17.8841 1.60832 16.4626 1.22593 14.8879C0.843542 13.3132 0.948371 11.6595 1.52654 10.1457C2.10472 8.63193 3.12897 7.3294 4.46374 6.41055C5.7985 5.49169 7.38083 4.99985 9.00129 5.00011H12.3346L18.3346 1.00011" stroke="currentColor" stroke-width="2" stroke-linecap="round" stroke-linejoin="round"/>
</svg>
