<svg preserveAspectRatio="none"  overflow="visible" style="display: block;" viewBox="0 0 13.0006 12.3334" fill="none" xmlns="http://www.w3.org/2000/svg">
<path id="Vector" d="M9.16798 0.500053V3.03539C9.99305 3.5128 10.6212 4.26835 10.94 5.16672H11.834C12.0108 5.16672 12.1804 5.23696 12.3054 5.36198C12.4304 5.48701 12.5006 5.65658 12.5006 5.83339V7.16672C12.5006 7.34353 12.4304 7.5131 12.3054 7.63812C12.1804 7.76315 12.0108 7.83339 11.834 7.83339H10.9393C10.7153 8.46672 10.3346 9.03339 9.83398 9.48205V10.8334C9.83398 11.0986 9.72862 11.353 9.54108 11.5405C9.35355 11.728 9.09919 11.8334 8.83398 11.8334C8.56876 11.8334 8.31441 11.728 8.12687 11.5405C7.93934 11.353 7.83398 11.0986 7.83398 10.8334V10.4447C7.61367 10.4816 7.39068 10.5001 7.16731 10.5001H4.50064C4.27727 10.5001 4.05428 10.4816 3.83398 10.4447V10.8334C3.83398 11.0986 3.72862 11.353 3.54109 11.5405C3.35355 11.728 3.09919 11.8334 2.83398 11.8334C2.56876 11.8334 2.31441 11.728 2.12687 11.5405C1.93934 11.353 1.83398 11.0986 1.83398 10.8334V9.50005V9.48205C1.22995 8.94203 0.804162 8.23131 0.612967 7.44396C0.421771 6.65662 0.474186 5.82977 0.763272 5.07287C1.05236 4.31597 1.56449 3.6647 2.23187 3.20527C2.89925 2.74585 3.69042 2.49992 4.50064 2.50005H6.16731L9.16731 0.500053" stroke="currentColor" stroke-linecap="round" stroke-linejoin="round"/>
</svg>
