<svg preserveAspectRatio="none"  overflow="visible" style="display: block;" viewBox="0 0 19.501 18.5001" fill="none" xmlns="http://www.w3.org/2000/svg">
<path id="Vector" d="M13.752 0.75008V4.55308C14.9896 5.2692 15.9318 6.40253 16.41 7.75008H17.751C18.0162 7.75008 18.2705 7.85544 18.4581 8.04297C18.6456 8.23051 18.751 8.48486 18.751 8.75008V10.7501C18.751 11.0153 18.6456 11.2697 18.4581 11.4572C18.2705 11.6447 18.0162 11.7501 17.751 11.7501H16.409C16.073 12.7001 15.502 13.5501 14.751 14.2231V16.2501C14.751 16.6479 14.5929 17.0294 14.3116 17.3107C14.0303 17.592 13.6488 17.7501 13.251 17.7501C12.8531 17.7501 12.4716 17.592 12.1903 17.3107C11.909 17.0294 11.751 16.6479 11.751 16.2501V15.6671C11.4205 15.7224 11.086 15.7502 10.751 15.7501H6.75097C6.41591 15.7502 6.08142 15.7224 5.75097 15.6671V16.2501C5.75097 16.6479 5.59293 17.0294 5.31163 17.3107C5.03032 17.592 4.64879 17.7501 4.25097 17.7501C3.85314 17.7501 3.47161 17.592 3.19031 17.3107C2.909 17.0294 2.75097 16.6479 2.75097 16.2501V14.2501V14.2231C1.84493 13.413 1.20624 12.347 0.91945 11.1659C0.632657 9.98492 0.711278 8.74465 1.14491 7.6093C1.57854 6.47395 2.34673 5.49705 3.3478 4.80791C4.34887 4.11877 5.53562 3.74988 6.75097 3.75008H9.25097L13.751 0.75008" stroke="currentColor" stroke-width="1.5" stroke-linecap="round" stroke-linejoin="round"/>
</svg>
