<svg xmlns="http://www.w3.org/2000/svg" viewBox="0 0 24 24" width="32" height="32" fill="currentColor">
  <path d="M19.14 12.94c.04-.3.06-.61.06-.94 0-.33-.02-.64-.07-.94l1.72-1.34c.15-.12.19-.34.1-.51l-1.63-2.83c-.1-.17-.31-.24-.49-.17l-2.03.8c-.42-.32-.9-.6-1.42-.82L14.4 2.9c-.04-.21-.24-.36-.48-.36h-3.26c-.24 0-.43.15-.48.36l-.3 2.16c-.52.23-1 .51-1.42.82l-2.03-.8c-.18-.07-.39 0-.49.17l-1.63 2.83c-.1.17-.06.39.1.51l1.72 1.34c-.05.3-.07.61-.07.94s.02.64.07.94l-1.72 1.34c-.16.12-.2.34-.1.51l1.63 2.83c.1.17.31.24.49.17l2.03-.8c.42.32.9.6 1.42.82l.3 2.16c.05.21.24.36.48.36h3.26c.24 0 .44-.15.48-.36l.3-2.16c.52-.23 1-.51 1.42-.82l2.03.8c.18.07.39 0 .49-.17l1.63-2.83c.1-.17.06-.39-.1-.51l-1.72-1.34zM12 15.6c-1.98 0-3.6-1.62-3.6-3.6s1.62-3.6 3.6-3.6 3.6 1.62 3.6 3.6-1.62 3.6-3.6 3.6z" stroke="currentColor" stroke-width="1.5" fill="none" stroke-linecap="round" stroke-linejoin="round"/>
</svg>