<svg xmlns="http://www.w3.org/2000/svg" viewBox="0 0 39 39" fill="none">
<path id="Vector" d="M16.15 4.134C17.002 0.622 21.998 0.622 22.85 4.134C22.9778 4.6616 23.2284 5.15156 23.5814 5.564C23.9344 5.97644 24.3798 6.29971 24.8813 6.50749C25.3828 6.71528 25.9263 6.8017 26.4676 6.75974C27.0088 6.71777 27.5325 6.5486 27.996 6.266C31.082 4.386 34.616 7.918 32.736 11.006C32.4538 11.4693 32.2849 11.9927 32.243 12.5335C32.2012 13.0744 32.2875 13.6175 32.4951 14.1188C32.7026 14.62 33.0255 15.0652 33.4375 15.4181C33.8494 15.7711 34.3389 16.0218 34.866 16.15C38.378 17.002 38.378 21.998 34.866 22.85C34.3384 22.9778 33.8484 23.2284 33.436 23.5814C33.0236 23.9344 32.7003 24.3798 32.4925 24.8813C32.2847 25.3828 32.1983 25.9263 32.2403 26.4676C32.2822 27.0088 32.4514 27.5325 32.734 27.996C34.614 31.082 31.082 34.616 27.994 32.736C27.5307 32.4538 27.0073 32.2849 26.4665 32.243C25.9256 32.2012 25.3825 32.2875 24.8812 32.4951C24.38 32.7026 23.9348 33.0255 23.5819 33.4375C23.2289 33.8494 22.9782 34.3389 22.85 34.866C21.998 38.378 17.002 38.378 16.15 34.866C16.0222 34.3384 15.7716 33.8484 15.4186 33.436C15.0656 33.0236 14.6202 32.7003 14.1187 32.4925C13.6172 32.2847 13.0737 32.1983 12.5324 32.2403C11.9912 32.2822 11.4675 32.4514 11.004 32.734C7.918 34.614 4.384 31.082 6.264 27.994C6.5462 27.5307 6.7151 27.0073 6.75697 26.4665C6.79883 25.9256 6.71249 25.3825 6.50494 24.8812C6.2974 24.38 5.97452 23.9348 5.56255 23.5819C5.15057 23.2289 4.66113 22.9782 4.134 22.85C0.622 21.998 0.622 17.002 4.134 16.15C4.6616 16.0222 5.15156 15.7716 5.564 15.4186C5.97644 15.0656 6.29971 14.6202 6.50749 14.1187C6.71528 13.6172 6.8017 13.0737 6.75974 12.5324C6.71777 11.9912 6.5486 11.4675 6.266 11.004C4.386 7.918 7.918 4.384 11.006 6.264C13.006 7.48 15.598 6.404 16.15 4.134Z" stroke="currentColor" stroke-width="3" stroke-linecap="round" stroke-linejoin="round"/>
</svg>
