<svg xmlns="http://www.w3.org/2000/svg" viewBox="0 0 16.25 16.25" fill="none">
<path id="Vector" d="M6.72917 1.7225C7.08417 0.259167 9.16583 0.259167 9.52083 1.7225C9.5741 1.94233 9.67852 2.14648 9.82559 2.31833C9.97267 2.49018 10.1582 2.62488 10.3672 2.71145C10.5762 2.79803 10.8026 2.83404 11.0282 2.81656C11.2537 2.79907 11.4719 2.72859 11.665 2.61083C12.9508 1.8275 14.4233 3.29917 13.64 4.58583C13.5224 4.77888 13.452 4.99695 13.4346 5.22231C13.4172 5.44767 13.4531 5.67397 13.5396 5.88282C13.6261 6.09166 13.7606 6.27715 13.9323 6.42421C14.1039 6.57127 14.3079 6.67575 14.5275 6.72917C15.9908 7.08417 15.9908 9.16583 14.5275 9.52083C14.3077 9.5741 14.1035 9.67852 13.9317 9.82559C13.7598 9.97267 13.6251 10.1582 13.5385 10.3672C13.452 10.5762 13.416 10.8026 13.4334 11.0282C13.4509 11.2537 13.5214 11.4719 13.6392 11.665C14.4225 12.9508 12.9508 14.4233 11.6642 13.64C11.4711 13.5224 11.2531 13.452 11.0277 13.4346C10.8023 13.4172 10.576 13.4531 10.3672 13.5396C10.1583 13.6261 9.97285 13.7606 9.82579 13.9323C9.67873 14.1039 9.57425 14.3079 9.52083 14.5275C9.16583 15.9908 7.08417 15.9908 6.72917 14.5275C6.6759 14.3077 6.57148 14.1035 6.42441 13.9317C6.27733 13.7598 6.09176 13.6251 5.88279 13.5385C5.67382 13.452 5.44736 13.416 5.22185 13.4334C4.99633 13.4509 4.77813 13.5214 4.585 13.6392C3.29917 14.4225 1.82667 12.9508 2.61 11.6642C2.72758 11.4711 2.79796 11.2531 2.8154 11.0277C2.83285 10.8023 2.79687 10.576 2.71039 10.3672C2.62392 10.1583 2.48938 9.97285 2.31773 9.82579C2.14607 9.67873 1.94214 9.57425 1.7225 9.52083C0.259167 9.16583 0.259167 7.08417 1.7225 6.72917C1.94233 6.6759 2.14648 6.57148 2.31833 6.42441C2.49018 6.27733 2.62488 6.09176 2.71145 5.88279C2.79803 5.67382 2.83404 5.44736 2.81656 5.22185C2.79907 4.99633 2.72859 4.77813 2.61083 4.585C1.8275 3.29917 3.29917 1.82667 4.58583 2.61C5.41917 3.11667 6.49917 2.66833 6.72917 1.7225Z" stroke="currentColor" stroke-width="1.25" stroke-linecap="round" stroke-linejoin="round"/>
</svg>
