<svg xmlns="http://www.w3.org/2000/svg" viewBox="0 0 13 13" fill="none">
<path id="Vector" d="M5.38333 1.378C5.66733 0.207333 7.33267 0.207333 7.61667 1.378C7.65928 1.55387 7.74281 1.71719 7.86047 1.85467C7.97813 1.99215 8.12659 2.0999 8.29377 2.16916C8.46094 2.23843 8.64211 2.26723 8.82252 2.25325C9.00294 2.23926 9.1775 2.18287 9.332 2.08867C10.3607 1.462 11.5387 2.63933 10.912 3.66867C10.8179 3.8231 10.7616 3.99756 10.7477 4.17785C10.7337 4.35814 10.7625 4.53918 10.8317 4.70625C10.9009 4.87333 11.0085 5.02172 11.1458 5.13937C11.2831 5.25702 11.4463 5.3406 11.622 5.38333C12.7927 5.66733 12.7927 7.33267 11.622 7.61667C11.4461 7.65928 11.2828 7.74281 11.1453 7.86047C11.0079 7.97813 10.9001 8.12659 10.8308 8.29377C10.7616 8.46094 10.7328 8.64211 10.7468 8.82252C10.7607 9.00294 10.8171 9.1775 10.9113 9.332C11.538 10.3607 10.3607 11.5387 9.33133 10.912C9.1769 10.8179 9.00244 10.7616 8.82215 10.7477C8.64186 10.7337 8.46082 10.7625 8.29375 10.8317C8.12667 10.9009 7.97828 11.0085 7.86063 11.1458C7.74298 11.2831 7.6594 11.4463 7.61667 11.622C7.33267 12.7927 5.66733 12.7927 5.38333 11.622C5.34072 11.4461 5.25719 11.2828 5.13953 11.1453C5.02187 11.0079 4.87341 10.9001 4.70623 10.8308C4.53906 10.7616 4.35789 10.7328 4.17748 10.7468C3.99706 10.7607 3.8225 10.8171 3.668 10.9113C2.63933 11.538 1.46133 10.3607 2.088 9.33133C2.18207 9.1769 2.23837 9.00244 2.25232 8.82215C2.26628 8.64186 2.2375 8.46082 2.16831 8.29375C2.09913 8.12667 1.99151 7.97828 1.85418 7.86063C1.71686 7.74298 1.55371 7.6594 1.378 7.61667C0.207333 7.33267 0.207333 5.66733 1.378 5.38333C1.55387 5.34072 1.71719 5.25719 1.85467 5.13953C1.99215 5.02187 2.0999 4.87341 2.16916 4.70623C2.23843 4.53906 2.26723 4.35789 2.25325 4.17748C2.23926 3.99706 2.18287 3.8225 2.08867 3.668C1.462 2.63933 2.63933 1.46133 3.66867 2.088C4.33533 2.49333 5.19933 2.13467 5.38333 1.378Z" stroke="currentColor" stroke-linecap="round" stroke-linejoin="round"/>
</svg>
