<svg xmlns="http://www.w3.org/2000/svg" viewBox="0 0 20 20" width="20" height="20" fill="none">
  <g transform="translate(4.375 13.5417)">
    <path d="M0.625 2.29167C0.625 2.73369 0.800595 3.15762 1.11316 3.47018C1.42572 3.78274 1.84964 3.95833 2.29167 3.95833C2.73369 3.95833 3.15762 3.78274 3.47018 3.47018C3.78274 3.15762 3.95833 2.73369 3.95833 2.29167C3.95833 1.84964 3.78274 1.42572 3.47018 1.11316C3.15762 0.800595 2.73369 0.625 2.29167 0.625C1.84964 0.625 1.42572 0.800595 1.11316 1.11316C0.800595 1.42572 0.625 1.84964 0.625 2.29167Z" stroke="currentColor" stroke-width="1.25" stroke-linecap="round" stroke-linejoin="round"/>
  </g>
  <g transform="translate(12.7083 13.5417)">
    <path d="M0.625 2.29167C0.625 2.73369 0.800595 3.15762 1.11316 3.47018C1.42572 3.78274 1.84964 3.95833 2.29167 3.95833C2.73369 3.95833 3.15762 3.78274 3.47018 3.47018C3.78274 3.15762 3.95833 2.73369 3.95833 2.29167C3.95833 1.84964 3.78274 1.42572 3.47018 1.11316C3.15762 0.800595 2.73369 0.625 2.29167 0.625C1.84964 0.625 1.42572 0.800595 1.11316 1.11316C0.800595 1.42572 0.625 1.84964 0.625 2.29167Z" stroke="currentColor" stroke-width="1.25" stroke-linecap="round" stroke-linejoin="round"/>
  </g>
  <g transform="translate(1.0417 1.875)">
    <path d="M0.625 2.29167H2.70833L4.06833 6.3725C4.40017 7.36824 5.03695 8.2343 5.88843 8.84797C6.73991 9.46165 7.76292 9.7918 8.8125 9.79167H11.0417C12.2572 9.79167 13.423 9.30878 14.2826 8.44924C15.1421 7.5897 15.625 6.42391 15.625 5.20833C15.625 3.99276 15.1421 2.82697 14.2826 1.96743C13.423 1.10789 12.2572 0.625 11.0417 0.625H10.625V5.625" stroke="currentColor" stroke-width="1.25" stroke-linecap="round" stroke-linejoin="round"/>
  </g>
  <g transform="translate(4.375 6.875)">
    <path d="M0.625 0.625H12.2917" stroke="currentColor" stroke-width="1.25" stroke-linecap="round" stroke-linejoin="round"/>
  </g>
  <g transform="translate(6.0417 11.0417)">
    <path d="M0.62517 3.12517L1.4585 0.62517" stroke="currentColor" stroke-width="1.25" stroke-linecap="round" stroke-linejoin="round"/>
  </g>
  <g transform="translate(11.875 11.0417)">
    <path d="M0.62517 0.62517L1.4585 3.12517" stroke="currentColor" stroke-width="1.25" stroke-linecap="round" stroke-linejoin="round"/>
  </g>
</svg>