<svg xmlns="http://www.w3.org/2000/svg" viewBox="0 0 24 24" width="24" height="24" fill="none">
  <g transform="translate(5.25 16.25)">
    <path d="M0.75 2.75C0.75 3.28043 0.960714 3.78914 1.33579 4.16421C1.71086 4.53929 2.21957 4.75 2.75 4.75C3.28043 4.75 3.78914 4.53929 4.16421 4.16421C4.53929 3.78914 4.75 3.28043 4.75 2.75C4.75 2.21957 4.53929 1.71086 4.16421 1.33579C3.78914 0.960714 3.28043 0.75 2.75 0.75C2.21957 0.75 1.71086 0.960714 1.33579 1.33579C0.960714 1.71086 0.75 2.21957 0.75 2.75Z" stroke="currentColor" stroke-width="1.5" stroke-linecap="round" stroke-linejoin="round"/>
  </g>
  <g transform="translate(15.25 16.25)">
    <path d="M0.75 2.75C0.75 3.28043 0.960714 3.78914 1.33579 4.16421C1.71086 4.53929 2.21957 4.75 2.75 4.75C3.28043 4.75 3.78914 4.53929 4.16421 4.16421C4.53929 3.78914 4.75 3.28043 4.75 2.75C4.75 2.21957 4.53929 1.71086 4.16421 1.33579C3.78914 0.960714 3.28043 0.75 2.75 0.75C2.21957 0.75 1.71086 0.960714 1.33579 1.33579C0.960714 1.71086 0.75 2.21957 0.75 2.75Z" stroke="currentColor" stroke-width="1.5" stroke-linecap="round" stroke-linejoin="round"/>
  </g>
  <g transform="translate(1.25 2.25)">
    <path d="M0.75 2.75H3.25L4.882 7.647C5.28021 8.84189 6.04434 9.88116 7.06612 10.6176C8.0879 11.354 9.31551 11.7502 10.575 11.75H13.25C14.7087 11.75 16.1076 11.1705 17.1391 10.1391C18.1705 9.10764 18.75 7.70869 18.75 6.25C18.75 4.79131 18.1705 3.39236 17.1391 2.36091C16.1076 1.32946 14.7087 0.75 13.25 0.75H12.75V6.75" stroke="currentColor" stroke-width="1.5" stroke-linecap="round" stroke-linejoin="round"/>
  </g>
  <g transform="translate(5.25 8.25)">
    <path d="M0.75 0.75H14.75" stroke="currentColor" stroke-width="1.5" stroke-linecap="round" stroke-linejoin="round"/>
  </g>
  <g transform="translate(8.25 13.25)">
    <path d="M0.750203 3.7502L1.7502 0.750203" stroke="currentColor" stroke-width="1.5" stroke-linecap="round" stroke-linejoin="round"/>
  </g>
  <g transform="translate(15.25 13.25)">
    <path d="M0.750203 0.750203L1.7502 3.7502" stroke="currentColor" stroke-width="1.5" stroke-linecap="round" stroke-linejoin="round"/>
  </g>
</svg>