<svg xmlns="http://www.w3.org/2000/svg" viewBox="0 0 32 32" width="32" height="32" fill="none">
  <g transform="translate(7 21.6667)">
    <path d="M1 3.66667C1 4.37391 1.28095 5.05219 1.78105 5.55228C2.28115 6.05238 2.95942 6.33333 3.66667 6.33333C4.37391 6.33333 5.05219 6.05238 5.55228 5.55228C6.05238 5.05219 6.33333 4.37391 6.33333 3.66667C6.33333 2.95942 6.05238 2.28115 5.55228 1.78105C5.05219 1.28095 4.37391 1 3.66667 1C2.95942 1 2.28115 1.28095 1.78105 1.78105C1.28095 2.28115 1 2.95942 1 3.66667Z" stroke="currentColor" stroke-width="2" stroke-linecap="round" stroke-linejoin="round"/>
  </g>
  <g transform="translate(20.3333 21.6667)">
    <path d="M1 3.66667C1 4.37391 1.28095 5.05219 1.78105 5.55228C2.28115 6.05238 2.95942 6.33333 3.66667 6.33333C4.37391 6.33333 5.05219 6.05238 5.55228 5.55228C6.05238 5.05219 6.33333 4.37391 6.33333 3.66667C6.33333 2.95942 6.05238 2.28115 5.55228 1.78105C5.05219 1.28095 4.37391 1 3.66667 1C2.95942 1 2.28115 1.28095 1.78105 1.78105C1.28095 2.28115 1 2.95942 1 3.66667Z" stroke="currentColor" stroke-width="2" stroke-linecap="round" stroke-linejoin="round"/>
  </g>
  <g transform="translate(1.6667 3)">
    <path d="M1 3.66667H4.33333L6.50933 10.196C7.04028 11.7892 8.05912 13.1749 9.42149 14.1568C10.7839 15.1386 12.4207 15.6669 14.1 15.6667H17.6667C19.6116 15.6667 21.4769 14.8941 22.8521 13.5188C24.2274 12.1435 25 10.2783 25 8.33333C25 6.38841 24.2274 4.52315 22.8521 3.14788C21.4769 1.77262 19.6116 1 17.6667 1H17V9" stroke="currentColor" stroke-width="2" stroke-linecap="round" stroke-linejoin="round"/>
  </g>
  <g transform="translate(7 11)">
    <path d="M1 1H19.6667" stroke="currentColor" stroke-width="2" stroke-linecap="round" stroke-linejoin="round"/>
  </g>
  <g transform="translate(11 17.6667)">
    <path d="M1.00027 5.00027L2.3336 1.00027" stroke="currentColor" stroke-width="2" stroke-linecap="round" stroke-linejoin="round"/>
  </g>
  <g transform="translate(20.3333 17.6667)">
    <path d="M1.00027 1.00027L2.3336 5.00027" stroke="currentColor" stroke-width="2" stroke-linecap="round" stroke-linejoin="round"/>
  </g>
</svg>