<svg xmlns="http://www.w3.org/2000/svg" viewBox="0 0 32 32" width="32" height="32" fill="none">
  <g transform="translate(4.33333 4.33333)">
    <path d="M11.6667 3C10.2347 2.21867 8.22267 1 6.33333 1C3.53333 1 1 2.66267 1 7.66667C1 14.1987 2.408 18.88 4.56133 21.716C5.32533 22.724 7.188 22.4107 7.984 21.4013C8.51467 20.728 9.076 19.4827 9.66667 17.6667C10.056 16.6387 10.856 15.6613 11.6667 15.6667C12.4693 15.6667 13.28 16.6493 13.6667 17.6667C14.2573 19.4827 14.8187 20.7267 15.3493 21.4C16.1453 22.412 18.016 22.724 18.772 21.716C20.9253 18.88 22.3333 14.2 22.3333 7.66667C22.3333 2.68 19.7893 1 17 1C15.1027 1 13.1067 2.21467 11.6667 3Z" stroke="currentColor" stroke-width="2" stroke-linecap="round" stroke-linejoin="round"/>
  </g>
  <g transform="translate(15 6.33333)">
    <path d="M1.00022 1.00022L5.00022 3.00022" stroke="currentColor" stroke-width="2" stroke-linecap="round" stroke-linejoin="round"/>
  </g>
</svg>