<svg xmlns="http://www.w3.org/2000/svg" viewBox="0 0 16 16" width="16" height="16" fill="none">
  <g transform="translate(2.16667 2.16667)">
    <path d="M5.83333 1.5C5.11733 1.10933 4.11133 0.5 3.16667 0.5C1.76667 0.5 0.5 1.33133 0.5 3.83333C0.5 7.09933 1.204 9.44 2.28067 10.858C2.66267 11.362 3.594 11.2053 3.992 10.7007C4.25733 10.364 4.538 9.74133 4.83333 8.83333C5.028 8.31933 5.428 7.83067 5.83333 7.83333C6.23467 7.83333 6.64 8.32467 6.83333 8.83333C7.12867 9.74133 7.40933 10.3633 7.67467 10.7C8.07267 11.206 9.008 11.362 9.386 10.858C10.4627 9.44 11.1667 7.1 11.1667 3.83333C11.1667 1.34 9.89467 0.5 8.5 0.5C7.55133 0.5 6.55333 1.10733 5.83333 1.5Z" stroke="currentColor" stroke-linecap="round" stroke-linejoin="round"/>
  </g>
  <g transform="translate(7.5 3.16667)">
    <path d="M0.50011 0.50011L2.50011 1.50011" stroke="currentColor" stroke-linecap="round" stroke-linejoin="round"/>
  </g>
</svg>