<svg xmlns="http://www.w3.org/2000/svg" viewBox="0 0 20 20" width="20" height="20" fill="none">
  <g transform="translate(2.70833 2.70833)">
    <path d="M7.29167 1.875C6.39667 1.38667 5.13917 0.625 3.95833 0.625C2.20833 0.625 0.625 1.66417 0.625 4.79167C0.625 8.87417 1.505 11.8 2.85083 13.5725C3.32833 14.2025 4.4925 14.0067 4.99 13.3758C5.32167 12.955 5.6725 12.1767 6.04167 11.0417C6.285 10.3992 6.785 9.78833 7.29167 9.79167C7.79333 9.79167 8.3 10.4058 8.54167 11.0417C8.91083 12.1767 9.26167 12.9542 9.59333 13.375C10.0908 14.0075 11.26 14.2025 11.7325 13.5725C13.0783 11.8 13.9583 8.875 13.9583 4.79167C13.9583 1.675 12.3683 0.625 10.625 0.625C9.43917 0.625 8.19167 1.38417 7.29167 1.875Z" stroke="currentColor" stroke-width="1.25" stroke-linecap="round" stroke-linejoin="round"/>
  </g>
  <g transform="translate(9.375 3.95833)">
    <path d="M0.625137 0.625137L3.12514 1.87514" stroke="currentColor" stroke-width="1.25" stroke-linecap="round" stroke-linejoin="round"/>
  </g>
</svg>