<svg xmlns="http://www.w3.org/2000/svg" viewBox="0 0 20 20" width="20" height="20" fill="none">
  <g transform="translate(6.04167 2.70833)">
    <path d="M0.625 3.95833C0.625 4.84239 0.976189 5.69023 1.60131 6.31536C2.22643 6.94048 3.07428 7.29167 3.95833 7.29167C4.84239 7.29167 5.69023 6.94048 6.31536 6.31536C6.94048 5.69023 7.29167 4.84239 7.29167 3.95833C7.29167 3.07428 6.94048 2.22643 6.31536 1.60131C5.69023 0.976189 4.84239 0.625 3.95833 0.625C3.07428 0.625 2.22643 0.976189 1.60131 1.60131C0.976189 2.22643 0.625 3.07428 0.625 3.95833Z" stroke="currentColor" stroke-width="1.25" stroke-linecap="round" stroke-linejoin="round"/>
  </g>
  <g transform="translate(4.375 13.125)">
    <path d="M0.625 5.625V3.95833C0.625 3.07428 0.976189 2.22643 1.60131 1.60131C2.22643 0.97619 3.07428 0.625 3.95833 0.625H7.29167C8.17572 0.625 9.02357 0.97619 9.64869 1.60131C10.2738 2.22643 10.625 3.07428 10.625 3.95833V5.625" stroke="currentColor" stroke-width="1.25" stroke-linecap="round" stroke-linejoin="round"/>
  </g>
</svg>