<svg xmlns="http://www.w3.org/2000/svg" viewBox="0 0 24 24" width="24" height="24" fill="none">
  <g transform="translate(8.25 3.25)">
    <path d="M0.75 4.75C0.75 5.81087 1.17143 6.82828 1.92157 7.57843C2.67172 8.32857 3.68913 8.75 4.75 8.75C5.81087 8.75 6.82828 8.32857 7.57843 7.57843C8.32857 6.82828 8.75 5.81087 8.75 4.75C8.75 3.68913 8.32857 2.67172 7.57843 1.92157C6.82828 1.17143 5.81087 0.75 4.75 0.75C3.68913 0.75 2.67172 1.17143 1.92157 1.92157C1.17143 2.67172 0.75 3.68913 0.75 4.75Z" stroke="currentColor" stroke-width="1.5" stroke-linecap="round" stroke-linejoin="round"/>
  </g>
  <g transform="translate(5.25 15.25)">
    <path d="M0.75 6.75V4.75C0.75 3.68913 1.17143 2.67172 1.92157 1.92157C2.67172 1.17143 3.68913 0.75 4.75 0.75H8.75C9.81087 0.75 10.8283 1.17143 11.5784 1.92157C12.3286 2.67172 12.75 3.68913 12.75 4.75V6.75" stroke="currentColor" stroke-width="1.5" stroke-linecap="round" stroke-linejoin="round"/>
  </g>
</svg>