<svg xmlns="http://www.w3.org/2000/svg" viewBox="0 0 48 48" width="48" height="48" fill="none">
  <g transform="translate(16.5 6.5)">
    <path d="M1.5 9.5C1.5 11.6217 2.34285 13.6566 3.84315 15.1569C5.34344 16.6571 7.37827 17.5 9.5 17.5C11.6217 17.5 13.6566 16.6571 15.1569 15.1569C16.6571 13.6566 17.5 11.6217 17.5 9.5C17.5 7.37827 16.6571 5.34344 15.1569 3.84315C13.6566 2.34285 11.6217 1.5 9.5 1.5C7.37827 1.5 5.34344 2.34285 3.84315 3.84315C2.34285 5.34344 1.5 7.37827 1.5 9.5Z" stroke="currentColor" stroke-width="3" stroke-linecap="round" stroke-linejoin="round"/>
  </g>
  <g transform="translate(10.5 30.5)">
    <path d="M1.5 13.5V9.5C1.5 7.37827 2.34285 5.34344 3.84315 3.84315C5.34344 2.34286 7.37827 1.5 9.5 1.5H17.5C19.6217 1.5 21.6566 2.34286 23.1569 3.84315C24.6571 5.34344 25.5 7.37827 25.5 9.5V13.5" stroke="currentColor" stroke-width="3" stroke-linecap="round" stroke-linejoin="round"/>
  </g>
</svg>