<svg xmlns="http://www.w3.org/2000/svg" viewBox="0 0 32 32" width="32" height="32" fill="none">
  <g transform="translate(11 4.33333)">
    <path d="M1 6.33333C1 7.74782 1.5619 9.10438 2.5621 10.1046C3.56229 11.1048 4.91885 11.6667 6.33333 11.6667C7.74782 11.6667 9.10438 11.1048 10.1046 10.1046C11.1048 9.10438 11.6667 7.74782 11.6667 6.33333C11.6667 4.91885 11.1048 3.56229 10.1046 2.5621C9.10438 1.5619 7.74782 1 6.33333 1C4.91885 1 3.56229 1.5619 2.5621 2.5621C1.5619 3.56229 1 4.91885 1 6.33333Z" stroke="currentColor" stroke-width="2" stroke-linecap="round" stroke-linejoin="round"/>
  </g>
  <g transform="translate(7 20)">
    <path d="M1 9V6.33333C1 4.91885 1.5619 3.56229 2.5621 2.5621C3.56229 1.5619 4.91885 1 6.33333 1H11.6667C13.0812 1 14.4377 1.5619 15.4379 2.5621C16.4381 3.56229 17 4.91885 17 6.33333V9" stroke="currentColor" stroke-width="2" stroke-linecap="round" stroke-linejoin="round"/>
  </g>
</svg>