<svg xmlns="http://www.w3.org/2000/svg" viewBox="0 0 16 16" width="16" height="16" fill="none">
  <g transform="translate(4.83333 2.16667)">
    <path d="M0.5 3.16667C0.5 3.87391 0.780951 4.55219 1.28105 5.05229C1.78115 5.55238 2.45942 5.83333 3.16667 5.83333C3.87391 5.83333 4.55219 5.55238 5.05229 5.05229C5.55238 4.55219 5.83333 3.87391 5.83333 3.16667C5.83333 2.45942 5.55238 1.78115 5.05229 1.28105C4.55219 0.780951 3.87391 0.5 3.16667 0.5C2.45942 0.5 1.78115 0.780951 1.28105 1.28105C0.780951 1.78115 0.5 2.45942 0.5 3.16667Z" stroke="currentColor" stroke-linecap="round" stroke-linejoin="round"/>
  </g>
  <g transform="translate(3.5 10.5)">
    <path d="M0.5 4.5V3.16667C0.5 2.45942 0.780951 1.78115 1.28105 1.28105C1.78115 0.780952 2.45942 0.5 3.16667 0.5H5.83333C6.54058 0.5 7.21885 0.780952 7.71895 1.28105C8.21905 1.78115 8.5 2.45942 8.5 3.16667V4.5" stroke="currentColor" stroke-linecap="round" stroke-linejoin="round"/>
  </g>
</svg>