<svg xmlns="http://www.w3.org/2000/svg" viewBox="0 0 20 20" width="20" height="20" fill="none">
  <g transform="translate(1.04233 1.599)">
    <path d="M7.59375 1.39435L0.838748 12.6727C0.699494 12.9138 0.625804 13.1872 0.625007 13.4657C0.624209 13.7442 0.696333 14.018 0.834203 14.26C0.972073 14.5019 1.17089 14.7035 1.41086 14.8448C1.65084 14.9861 1.92363 15.0621 2.20208 15.0652H15.7137C15.9921 15.062 16.2647 14.986 16.5046 14.8448C16.7445 14.7035 16.9432 14.502 17.081 14.2602C17.2189 14.0184 17.291 13.7447 17.2903 13.4663C17.2897 13.188 17.2161 12.9146 17.0771 12.6735L10.3221 1.39352C10.18 1.15894 9.97975 0.96497 9.74079 0.830348C9.50183 0.695726 9.23219 0.625 8.95791 0.625C8.68364 0.625 8.414 0.695726 8.17504 0.830348C7.93608 0.96497 7.73587 1.15894 7.59375 1.39352" stroke="currentColor" stroke-width="1.25" stroke-linecap="round" stroke-linejoin="round"/>
  </g>
  <g transform="translate(9.375 6.875)">
    <path d="M0.625 0.625V3.95833" stroke="currentColor" stroke-width="1.25" stroke-linecap="round" stroke-linejoin="round"/>
  </g>
  <g transform="translate(9.37083 12.70833)">
    <path d="M0.625 0.625H0.63375" stroke="currentColor" stroke-width="1.25" stroke-linecap="round" stroke-linejoin="round"/>
  </g>
</svg>